PathFileType	4	(X/Y/Z)	C:\Users\MAHE\Documents\generic-specific-tibial-stress-mtlb\PublicDataset\P01\Gait\WBDS01static1.trc
DataRate	CameraRate	NumFrames	NumMarkers	Units	OrigDataRate	OrigDataStartFrame	OrigNumFrames
150.000000	150.000000	6	28	mm	150.000000	93	150
Frame#	Time	L.Ankle			L.Ankle.Medial			L.ASIS			L.GTR			L.Heel			L.HF			L.Iliac.Crest			L.Knee			L.Knee.Medial			L.MT1			L.MT2			L.MT5			L.PSIS			L.TT			R.Ankle			R.Ankle.Medial			R.ASIS			R.GTR			R.Heel			R.HF			R.Iliac.Crest			R.Knee			R.Knee.Medial			R.MT1			R.MT2			R.MT5			R.PSIS			R.TT			
		X1	Y1	Z1	X2	Y2	Z2	X3	Y3	Z3	X4	Y4	Z4	X5	Y5	Z5	X6	Y6	Z6	X7	Y7	Z7	X8	Y8	Z8	X9	Y9	Z9	X10	Y10	Z10	X11	Y11	Z11	X12	Y12	Z12	X13	Y13	Z13	X14	Y14	Z14	X15	Y15	Z15	X16	Y16	Z16	X17	Y17	Z17	X18	Y18	Z18	X19	Y19	Z19	X20	Y20	Z20	X21	Y21	Z21	X22	Y22	Z22	X23	Y23	Z23	X24	Y24	Z24	X25	Y25	Z25	X26	Y26	Z26	X27	Y27	Z27	X28	Y28	Z28	

94	0.62	691.1174926757813	75.77346801757813	1042.874389648438	709.9701538085938	86.97242736816406	1127.632568359375	807.2088012695313	955.4138793945313	1085.29345703125	717.8464965820313	879.9830322265625	1039.99267578125	635.8685302734375	47.59584808349609	1083.502807617188	701.2901000976563	432.5858154296875	1043.208251953125	721.3152465820313	1033.116821289063	1046.585327148438	721.1168212890625	494.9989318847656	1052.433349609375	725.3189086914063	486.4882507324219	1178.982055664063	841.4931640625	40.85799407958984	1101.965454101563	841.9576416015625	35.20417022705078	1073.08642578125	814.7611694335938	28.77623748779297	1021.614379882813	617.28271484375	1002.943237304688	1193.524047851563	760.5892944335938	419.6382751464844	1086.934448242188	689.3230590820313	72.95230102539063	1399.142578125	706.0469360351563	91.78150939941406	1313.88037109375	810.4210815429688	954.3897094726563	1363.4306640625	706.7161254882813	888.049560546875	1404.595825195313	637.0545654296875	49.74813079833984	1349.26416015625	712.7698364257813	440.2471313476563	1403.754638671875	729.517822265625	1032.637939453125	1403.885620117188	729.6966552734375	495.799072265625	1394.785766601563	731.8900756835938	481.5725708007813	1270.128662109375	842.50390625	42.95095825195313	1341.5029296875	842.6316528320313	37.49448776245117	1365.114868164063	810.108642578125	31.55080413818359	1416.215942382813	619.0330200195313	1000.871520996094	1263.613403320313	769.2196655273438	423.3207702636719	1347.343139648438	
95	0.6266666666666667	691.1138305664063	75.77022552490234	1042.868774414063	709.9807739257813	86.96687316894531	1127.634643554688	807.3259887695313	955.41162109375	1085.273681640625	717.9573364257813	879.9902954101563	1039.971923828125	635.874755859375	47.60446548461914	1083.510009765625	701.3735961914063	432.5794067382813	1043.200561523438	721.3817138671875	1033.1279296875	1046.570556640625	721.2341918945313	494.9902038574219	1052.406860351563	725.4385375976563	486.495361328125	1178.963745117188	841.5025024414063	40.84490203857422	1101.986938476563	841.9605712890625	35.19209289550781	1073.094970703125	814.7734375	28.78007698059082	1021.618103027344	617.3677978515625	1002.933349609375	1193.49072265625	760.6746826171875	419.6220703125	1086.927490234375	689.320068359375	72.95574951171875	1399.129272460938	706.047119140625	91.77149200439453	1313.863037109375	810.5210571289063	954.3839111328125	1363.43212890625	706.7946166992188	888.0372924804688	1404.562255859375	637.0560913085938	49.75667953491211	1349.245971679688	712.7853393554688	440.2431030273438	1403.725708007813	729.5614013671875	1032.615966796875	1403.881469726563	729.7210083007813	495.7923889160156	1394.75048828125	731.94287109375	481.5554809570313	1270.108520507813	842.5010375976563	42.92918395996094	1341.475463867188	842.64208984375	37.44512557983398	1365.138793945313	810.1146240234375	31.54818916320801	1416.221557617188	619.113037109375	1000.841186523438	1263.586059570313	769.247314453125	423.3063354492188	1347.342407226563	
96	0.6333333333333334	691.1290893554688	75.753662109375	1042.875610351563	709.9735107421875	86.96550750732422	1127.645874023438	807.4324340820313	955.4127197265625	1085.262817382813	718.0805053710938	879.9832763671875	1039.951782226563	635.8916625976563	47.60777282714844	1083.506469726563	701.4575805664063	432.5788269042969	1043.201416015625	721.4672241210938	1033.1162109375	1046.55859375	721.33837890625	494.9697570800781	1052.379638671875	725.5642700195313	486.4945373535156	1178.96142578125	841.5178833007813	40.82938766479492	1101.982421875	841.9675903320313	35.18326187133789	1073.105102539063	814.7658081054688	28.77499961853027	1021.610107421875	617.4579467773438	1002.922119140625	1193.4638671875	760.7533569335938	419.6292724609375	1086.921630859375	689.32568359375	72.95384979248047	1399.107788085938	706.0386962890625	91.77090454101563	1313.839965820313	810.6287231445313	954.37158203125	1363.430053710938	706.8875122070313	888.02001953125	1404.530639648438	637.0693359375	49.76386260986328	1349.218872070313	712.7909545898438	440.24169921875	1403.706420898438	729.6033935546875	1032.586791992188	1403.884765625	729.7391357421875	495.7941284179688	1394.729858398438	731.9974975585938	481.5480651855469	1270.087768554688	842.5167236328125	42.90536117553711	1341.441650390625	842.6443481445313	37.399658203125	1365.154541015625	810.1129150390625	31.52486228942871	1416.23291015625	619.1880493164063	1000.817626953125	1263.568603515625	769.2714233398438	423.2944946289063	1347.323486328125	
97	0.64	691.1290283203125	75.75906372070313	1042.879760742188	709.9850463867188	86.96583557128906	1127.653686523438	807.532470703125	955.4053344726563	1085.233642578125	718.1941528320313	879.98779296875	1039.925170898438	635.9007568359375	47.62297058105469	1083.521362304688	701.53466796875	432.5856323242188	1043.192260742188	721.5317993164063	1033.1337890625	1046.535888671875	721.4467163085938	494.9734497070313	1052.375854492188	725.6795654296875	486.5026245117188	1178.930297851563	841.5180053710938	40.81949996948242	1101.992065429688	841.976806640625	35.17861557006836	1073.099365234375	814.7797241210938	28.7667064666748	1021.609741210938	617.5352783203125	1002.91357421875	1193.447387695313	760.8189697265625	419.6104125976563	1086.912353515625	689.3136596679688	72.97444915771484	1399.08544921875	706.0494384765625	91.75860595703125	1313.815185546875	810.7510986328125	954.362060546875	1363.4248046875	706.9733276367188	888.0152587890625	1404.511352539063	637.089111328125	49.7768669128418	1349.18359375	712.7926635742188	440.2521362304688	1403.683227539063	729.64892578125	1032.576049804688	1403.888427734375	729.7600708007813	495.7895202636719	1394.713623046875	732.022216796875	481.5498046875	1270.061279296875	842.5327758789063	42.87550735473633	1341.409057617188	842.6586303710938	37.35485076904297	1365.15771484375	810.12451171875	31.52867317199707	1416.215698242188	619.2821655273438	1000.796997070313	1263.557983398438	769.2991333007813	423.2911682128906	1347.310913085938	
98	0.6466666666666667	691.1376953125	75.76033020019531	1042.8828125	709.9811401367188	86.96435546875	1127.651977539063	807.6397094726563	955.4028930664063	1085.213500976563	718.3109741210938	879.9805908203125	1039.902587890625	635.9088134765625	47.62297439575195	1083.519653320313	701.6087646484375	432.5868225097656	1043.197998046875	721.6090087890625	1033.13037109375	1046.533325195313	721.5324096679688	494.9646606445313	1052.35107421875	725.7742309570313	486.51025390625	1178.913696289063	841.5390014648438	40.81025314331055	1101.999755859375	841.98876953125	35.16824722290039	1073.114868164063	814.7893676757813	28.76077079772949	1021.614379882813	617.6088256835938	1002.896850585938	1193.4169921875	760.8905639648438	419.6036987304688	1086.897216796875	689.3036499023438	72.97305297851563	1399.061767578125	706.0527954101563	91.75173187255859	1313.800659179688	810.8501586914063	954.3436279296875	1363.437255859375	707.0690307617188	887.9951782226563	1404.486083984375	637.1051025390625	49.77139282226563	1349.16748046875	712.7938842773438	440.2517395019531	1403.6552734375	729.6986083984375	1032.544311523438	1403.889404296875	729.7686157226563	495.7848815917969	1394.699340820313	732.0801391601563	481.5423583984375	1270.029296875	842.5416259765625	42.85076522827148	1341.369018554688	842.6629638671875	37.31518936157227	1365.155395507813	810.1351318359375	31.52347946166992	1416.21533203125	619.366455078125	1000.776000976563	1263.527954101563	769.3161010742188	423.280029296875	1347.305786132813	
99	0.6533333333333333	691.1346435546875	75.75056457519531	1042.903564453125	709.9776000976563	86.95575714111328	1127.6591796875	807.7398071289063	955.3887329101563	1085.1875	718.4290771484375	879.9744262695313	1039.873779296875	635.9130249023438	47.62538146972656	1083.5458984375	701.66455078125	432.5840759277344	1043.190307617188	721.6718139648438	1033.13134765625	1046.512939453125	721.6084594726563	494.9744262695313	1052.348388671875	725.8658447265625	486.5061950683594	1178.915283203125	841.5478515625	40.79815292358398	1102.020629882813	841.9979858398438	35.15457153320313	1073.126831054688	814.7933349609375	28.76329231262207	1021.621398925781	617.6903076171875	1002.881469726563	1193.404418945313	760.9454345703125	419.5838928222656	1086.893920898438	689.3007202148438	72.97374725341797	1399.048950195313	706.0377197265625	91.74077606201172	1313.79052734375	810.9617309570313	954.3238525390625	1363.449462890625	707.1455078125	887.9818115234375	1404.473510742188	637.10009765625	49.78546142578125	1349.154296875	712.7978515625	440.2583618164063	1403.622192382813	729.7474975585938	1032.51953125	1403.889526367188	729.7797241210938	495.7887268066406	1394.66650390625	732.1027221679688	481.5475158691406	1269.994140625	842.5444946289063	42.83259963989258	1341.362548828125	842.6658325195313	37.2805061340332	1365.17724609375	810.1292114257813	31.5050048828125	1416.215087890625	619.4547119140625	1000.75	1263.499877929688	769.3348388671875	423.2730712890625	1347.302856445313	
